<?xml version="1.0" encoding="UTF-8" standalone="no"?>
<svg
   xmlns:dc="http://purl.org/dc/elements/1.1/"
   xmlns:cc="http://creativecommons.org/ns#"
   xmlns:rdf="http://www.w3.org/1999/02/22-rdf-syntax-ns#"
   xmlns:svg="http://www.w3.org/2000/svg"
   xmlns="http://www.w3.org/2000/svg"
   xmlns:sodipodi="http://sodipodi.sourceforge.net/DTD/sodipodi-0.dtd"
   xmlns:inkscape="http://www.inkscape.org/namespaces/inkscape"
   version="1.1"
   id="svg2"
   xml:space="preserve"
   width="474.23999"
   height="364.79999"
   viewBox="0 0 474.23999 364.79999"
   sodipodi:docname="isocline_detailed_7.svg"
   inkscape:version="1.0.2 (e86c870879, 2021-01-15)"><metadata
     id="metadata8"><rdf:RDF><cc:Work
         rdf:about=""><dc:format>image/svg+xml</dc:format><dc:type
           rdf:resource="http://purl.org/dc/dcmitype/StillImage" /><dc:title /></cc:Work></rdf:RDF></metadata><defs
     id="defs6"><marker
       style="overflow:visible;"
       id="marker1426"
       refX="0.0"
       refY="0.0"
       orient="auto"
       inkscape:stockid="Arrow1Mend"
       inkscape:isstock="true"><path
         transform="scale(0.4) rotate(180) translate(10,0)"
         style="fill-rule:evenodd;stroke:#0000ff;stroke-width:1pt;stroke-opacity:1;fill:#0000ff;fill-opacity:1"
         d="M 0.0,0.0 L 5.0,-5.0 L -12.5,0.0 L 5.0,5.0 L 0.0,0.0 z "
         id="path1424" /></marker><marker
       style="overflow:visible;"
       id="marker1350"
       refX="0.0"
       refY="0.0"
       orient="auto"
       inkscape:stockid="Arrow1Mend"
       inkscape:isstock="true"
       inkscape:collect="always"><path
         transform="scale(0.4) rotate(180) translate(10,0)"
         style="fill-rule:evenodd;stroke:#0000ff;stroke-width:1pt;stroke-opacity:1;fill:#0000ff;fill-opacity:1"
         d="M 0.0,0.0 L 5.0,-5.0 L -12.5,0.0 L 5.0,5.0 L 0.0,0.0 z "
         id="path1348" /></marker><marker
       style="overflow:visible;"
       id="Arrow1Mend"
       refX="0.0"
       refY="0.0"
       orient="auto"
       inkscape:stockid="Arrow1Mend"
       inkscape:isstock="true"
       inkscape:collect="always"><path
         transform="scale(0.4) rotate(180) translate(10,0)"
         style="fill-rule:evenodd;stroke:#0000ff;stroke-width:1pt;stroke-opacity:1;fill:#0000ff;fill-opacity:1"
         d="M 0.0,0.0 L 5.0,-5.0 L -12.5,0.0 L 5.0,5.0 L 0.0,0.0 z "
         id="path1021" /></marker><marker
       style="overflow:visible"
       id="marker2379"
       refX="0"
       refY="0"
       orient="auto"
       inkscape:stockid="Arrow1Lend"
       inkscape:isstock="true"><path
         transform="matrix(-0.8,0,0,-0.8,-10,0)"
         style="fill:#0000ff;fill-opacity:1;fill-rule:evenodd;stroke:#0000ff;stroke-width:1pt;stroke-opacity:1"
         d="M 0,0 5,-5 -12.5,0 5,5 Z"
         id="path2377" /></marker><clipPath
       clipPathUnits="userSpaceOnUse"
       id="clipPath22"><path
         d="m 54.29,54.416 h 286 V 262.8 h -286 z"
         id="path20" /></clipPath><clipPath
       clipPathUnits="userSpaceOnUse"
       id="clipPath32"><path
         d="m 54.29,54.416 h 286 V 262.8 h -286 z"
         id="path30" /></clipPath><clipPath
       clipPathUnits="userSpaceOnUse"
       id="clipPath42"><path
         d="m 54.29,54.416 h 286 V 262.8 h -286 z"
         id="path40" /></clipPath><clipPath
       clipPathUnits="userSpaceOnUse"
       id="clipPath146"><path
         d="m 54.29,54.416 h 286 V 262.8 h -286 z"
         id="path144" /></clipPath><clipPath
       clipPathUnits="userSpaceOnUse"
       id="clipPath156"><path
         d="m 54.29,54.416 h 286 V 262.8 h -286 z"
         id="path154" /></clipPath><clipPath
       clipPathUnits="userSpaceOnUse"
       id="clipPath166"><path
         d="m 54.29,54.416 h 286 V 262.8 h -286 z"
         id="path164" /></clipPath><clipPath
       clipPathUnits="userSpaceOnUse"
       id="clipPath176"><path
         d="m 54.29,54.416 h 286 V 262.8 h -286 z"
         id="path174" /></clipPath><clipPath
       clipPathUnits="userSpaceOnUse"
       id="clipPath186"><path
         d="m 54.29,54.416 h 286 V 262.8 h -286 z"
         id="path184" /></clipPath><clipPath
       clipPathUnits="userSpaceOnUse"
       id="clipPath196"><path
         d="m 54.29,54.416 h 286 V 262.8 h -286 z"
         id="path194" /></clipPath></defs><sodipodi:namedview
     pagecolor="#ffffff"
     bordercolor="#666666"
     borderopacity="1"
     objecttolerance="10"
     gridtolerance="10"
     guidetolerance="10"
     inkscape:pageopacity="0"
     inkscape:pageshadow="2"
     inkscape:window-width="1200"
     inkscape:window-height="1886"
     id="namedview4"
     showgrid="false"
     inkscape:zoom="1.165022"
     inkscape:cx="231.2292"
     inkscape:cy="182.39999"
     inkscape:window-x="0"
     inkscape:window-y="0"
     inkscape:window-maximized="1"
     inkscape:current-layer="g10"
     inkscape:document-rotation="0" /><g
     id="g10"
     inkscape:groupmode="layer"
     inkscape:label="isocline_detailed_7"
     transform="matrix(1.3333333,0,0,-1.3333333,0,364.8)"><path
       d="M 0,0 H 355.68 V 273.6 H 0 Z"
       style="fill:#ffffff;fill-opacity:1;fill-rule:nonzero;stroke:none"
       id="path12" /><path
       d="m 54.29,54.416 h 286 V 262.8 h -286 z"
       style="fill:#ffffff;fill-opacity:1;fill-rule:nonzero;stroke:none"
       id="path14" /><g
       id="g16"><g
         id="g18"
         clip-path="url(#clipPath22)"><path
           d="M 340.29,63.098667 V 236.752 H 173.44167 V 63.098667 Z"
           style="fill:#0000ff;fill-opacity:0.25;fill-rule:nonzero;stroke:#0000ff;stroke-width:1;stroke-linecap:butt;stroke-linejoin:miter;stroke-miterlimit:10;stroke-dasharray:none;stroke-opacity:0.25"
           id="path24" /></g></g><g
       id="g26"><g
         id="g28"
         clip-path="url(#clipPath32)"><path
           d="M 230.10087,63.098667 V 236.752 H 54.29 V 63.098667 Z"
           style="fill:#ff0000;fill-opacity:0.25;fill-rule:nonzero;stroke:#ff0000;stroke-width:1;stroke-linecap:butt;stroke-linejoin:miter;stroke-miterlimit:10;stroke-dasharray:none;stroke-opacity:0.25"
           id="path34" /></g></g><g
       id="g36"><g
         id="g38"
         clip-path="url(#clipPath42)"><path
           d="M 54.29,63.098667 V 236.752 v 0 z"
           style="fill:#000000;fill-opacity:0.25;fill-rule:nonzero;stroke:#000000;stroke-width:1;stroke-linecap:butt;stroke-linejoin:miter;stroke-miterlimit:10;stroke-dasharray:none;stroke-opacity:0.25"
           id="path44" /></g></g><g
       id="g46"><path
         d="m 54.29,54.416 v -3.5"
         style="fill:#000000;fill-opacity:1;fill-rule:nonzero;stroke:#000000;stroke-width:0.8;stroke-linecap:butt;stroke-linejoin:round;stroke-miterlimit:10;stroke-dasharray:none;stroke-opacity:1"
         id="path48" /><text
         transform="matrix(1,0,0,-1,49.711875,36.4785)"
         style="font-variant:normal;font-weight:normal;font-size:14.4px;font-family:'DejaVu Sans';-inkscape-font-specification:DejaVuSans;writing-mode:lr-tb;fill:#000000;fill-opacity:1;fill-rule:nonzero;stroke:none"
         id="text52"><tspan
           x="0"
           y="0"
           id="tspan50">0</tspan></text><path
         d="m 173.44167,54.416 v -3.5"
         style="fill:#000000;fill-opacity:1;fill-rule:nonzero;stroke:#000000;stroke-width:0.8;stroke-linecap:butt;stroke-linejoin:round;stroke-miterlimit:10;stroke-dasharray:none;stroke-opacity:1"
         id="path54" /><g
         id="g56"
         transform="translate(165.44167,36.416)"><text
           transform="matrix(1,0,0,-1,0,0.0625)"
           style="font-style:italic;font-variant:normal;font-size:14.4px;font-family:'DejaVu Sans';-inkscape-font-specification:DejaVuSans-Oblique;writing-mode:lr-tb;fill:#000000;fill-opacity:1;fill-rule:nonzero;stroke:none"
           id="text60"><tspan
             x="0"
             y="0"
             id="tspan58">h</tspan></text><text
           transform="matrix(1,0,0,-1,9.1206207,-2.3)"
           style="font-variant:normal;font-weight:normal;font-size:10.08px;font-family:'DejaVu Sans';-inkscape-font-specification:DejaVuSans;writing-mode:lr-tb;fill:#000000;fill-opacity:1;fill-rule:nonzero;stroke:none"
           id="text64"><tspan
             x="0"
             y="0"
             id="tspan62">0</tspan></text></g><path
         d="m 230.10087,54.416 v -3.5"
         style="fill:#000000;fill-opacity:1;fill-rule:nonzero;stroke:#000000;stroke-width:0.8;stroke-linecap:butt;stroke-linejoin:round;stroke-miterlimit:10;stroke-dasharray:none;stroke-opacity:1"
         id="path66" /><g
         id="g68"
         transform="translate(222.10087,36.416)"><text
           transform="matrix(1,0,0,-1,0,0.0625)"
           style="font-style:italic;font-variant:normal;font-size:14.4px;font-family:'DejaVu Sans';-inkscape-font-specification:DejaVuSans-Oblique;writing-mode:lr-tb;fill:#000000;fill-opacity:1;fill-rule:nonzero;stroke:none"
           id="text72"><tspan
             x="0"
             y="0"
             id="tspan70">h</tspan></text><text
           transform="matrix(1,0,0,-1,9.1206207,-2.3)"
           style="font-variant:normal;font-weight:normal;font-size:10.08px;font-family:'DejaVu Sans';-inkscape-font-specification:DejaVuSans;writing-mode:lr-tb;fill:#000000;fill-opacity:1;fill-rule:nonzero;stroke:none"
           id="text76"><tspan
             x="0"
             y="0"
             id="tspan74">1</tspan></text></g><path
         d="m 340.29,54.416 v -3.5"
         style="fill:#000000;fill-opacity:1;fill-rule:nonzero;stroke:#000000;stroke-width:0.8;stroke-linecap:butt;stroke-linejoin:round;stroke-miterlimit:10;stroke-dasharray:none;stroke-opacity:1"
         id="path78" /><text
         transform="matrix(1,0,0,-1,335.71187,36.4785)"
         style="font-variant:normal;font-weight:normal;font-size:14.4px;font-family:'DejaVu Sans';-inkscape-font-specification:DejaVuSans;writing-mode:lr-tb;fill:#000000;fill-opacity:1;fill-rule:nonzero;stroke:none"
         id="text82"><tspan
           x="0"
           y="0"
           id="tspan80">1</tspan></text><g
         id="g84"
         transform="translate(152.29,18.416)"><text
           transform="matrix(1,0,0,-1,0,0.0625)"
           style="font-variant:normal;font-weight:normal;font-size:14.4px;font-family:'DejaVu Sans';-inkscape-font-specification:DejaVuSans;writing-mode:lr-tb;fill:#000000;fill-opacity:1;fill-rule:nonzero;stroke:none"
           id="text88"><tspan
             x="0 9.1206207 17.925034 31.943237 40.74765 49.882324 59.002945 63.001114 66.999283 75.51561"
             y="0"
             sodipodi:role="line"
             id="tspan86">homophily </tspan></text><text
           transform="matrix(1,0,0,-1,80.089966,0.0625)"
           style="font-style:italic;font-variant:normal;font-size:14.4px;font-family:'DejaVu Sans';-inkscape-font-specification:DejaVuSans-Oblique;writing-mode:lr-tb;fill:#000000;fill-opacity:1;fill-rule:nonzero;stroke:none"
           id="text92"><tspan
             x="0"
             y="0"
             id="tspan90">h</tspan></text></g><path
         d="m 54.29,63.098667 h -3.5"
         style="fill:#000000;fill-opacity:1;fill-rule:nonzero;stroke:#000000;stroke-width:0.8;stroke-linecap:butt;stroke-linejoin:round;stroke-miterlimit:10;stroke-dasharray:none;stroke-opacity:1"
         id="path94" /><text
         transform="matrix(1,0,0,-1,31.38375,59.301792)"
         style="font-variant:normal;font-weight:normal;font-size:10px;font-family:'DejaVu Sans';-inkscape-font-specification:DejaVuSans;writing-mode:lr-tb;fill:#000000;fill-opacity:1;fill-rule:nonzero;stroke:none"
         id="text98"><tspan
           x="0 6.3600001 9.54"
           y="0"
           sodipodi:role="line"
           id="tspan96">0.0</tspan></text><path
         d="m 54.29,97.829333 h -3.5"
         style="fill:#000000;fill-opacity:1;fill-rule:nonzero;stroke:#000000;stroke-width:0.8;stroke-linecap:butt;stroke-linejoin:round;stroke-miterlimit:10;stroke-dasharray:none;stroke-opacity:1"
         id="path100" /><text
         transform="matrix(1,0,0,-1,31.38375,94.032458)"
         style="font-variant:normal;font-weight:normal;font-size:10px;font-family:'DejaVu Sans';-inkscape-font-specification:DejaVuSans;writing-mode:lr-tb;fill:#000000;fill-opacity:1;fill-rule:nonzero;stroke:none"
         id="text104"><tspan
           x="0 6.3600001 9.54"
           y="0"
           sodipodi:role="line"
           id="tspan102">0.2</tspan></text><path
         d="m 54.29,132.56 h -3.5"
         style="fill:#000000;fill-opacity:1;fill-rule:nonzero;stroke:#000000;stroke-width:0.8;stroke-linecap:butt;stroke-linejoin:round;stroke-miterlimit:10;stroke-dasharray:none;stroke-opacity:1"
         id="path106" /><text
         transform="matrix(1,0,0,-1,31.38375,128.76312)"
         style="font-variant:normal;font-weight:normal;font-size:10px;font-family:'DejaVu Sans';-inkscape-font-specification:DejaVuSans;writing-mode:lr-tb;fill:#000000;fill-opacity:1;fill-rule:nonzero;stroke:none"
         id="text110"><tspan
           x="0 6.3600001 9.54"
           y="0"
           sodipodi:role="line"
           id="tspan108">0.4</tspan></text><path
         d="m 54.29,167.29067 h -3.5"
         style="fill:#000000;fill-opacity:1;fill-rule:nonzero;stroke:#000000;stroke-width:0.8;stroke-linecap:butt;stroke-linejoin:round;stroke-miterlimit:10;stroke-dasharray:none;stroke-opacity:1"
         id="path112" /><text
         transform="matrix(1,0,0,-1,31.38375,163.49379)"
         style="font-variant:normal;font-weight:normal;font-size:10px;font-family:'DejaVu Sans';-inkscape-font-specification:DejaVuSans;writing-mode:lr-tb;fill:#000000;fill-opacity:1;fill-rule:nonzero;stroke:none"
         id="text116"><tspan
           x="0 6.3600001 9.54"
           y="0"
           sodipodi:role="line"
           id="tspan114">0.6</tspan></text><path
         d="m 54.29,202.02133 h -3.5"
         style="fill:#000000;fill-opacity:1;fill-rule:nonzero;stroke:#000000;stroke-width:0.8;stroke-linecap:butt;stroke-linejoin:round;stroke-miterlimit:10;stroke-dasharray:none;stroke-opacity:1"
         id="path118" /><text
         transform="matrix(1,0,0,-1,31.38375,198.22446)"
         style="font-variant:normal;font-weight:normal;font-size:10px;font-family:'DejaVu Sans';-inkscape-font-specification:DejaVuSans;writing-mode:lr-tb;fill:#000000;fill-opacity:1;fill-rule:nonzero;stroke:none"
         id="text122"><tspan
           x="0 6.3600001 9.54"
           y="0"
           sodipodi:role="line"
           id="tspan120">0.8</tspan></text><path
         d="m 54.29,236.752 h -3.5"
         style="fill:#000000;fill-opacity:1;fill-rule:nonzero;stroke:#000000;stroke-width:0.8;stroke-linecap:butt;stroke-linejoin:round;stroke-miterlimit:10;stroke-dasharray:none;stroke-opacity:1"
         id="path124" /><text
         transform="matrix(1,0,0,-1,31.38375,232.95512)"
         style="font-variant:normal;font-weight:normal;font-size:10px;font-family:'DejaVu Sans';-inkscape-font-specification:DejaVuSans;writing-mode:lr-tb;fill:#000000;fill-opacity:1;fill-rule:nonzero;stroke:none"
         id="text128"><tspan
           x="0 6.3600001 9.54"
           y="0"
           sodipodi:role="line"
           id="tspan126">1.0</tspan></text><g
         id="g130"
         transform="rotate(90,-16.862125,41.245875)"><text
           transform="matrix(1,0,0,-1,0,0.0625)"
           style="font-variant:normal;font-weight:normal;font-size:14.4px;font-family:'DejaVu Sans';-inkscape-font-specification:DejaVuSans;writing-mode:lr-tb;fill:#000000;fill-opacity:1;fill-rule:nonzero;stroke:none"
           id="text134"><tspan
             x="0 9.1346741 15.051132 23.855545 32.990219 41.794632 47.71109 53.3535 57.351669 66.156082 75.276703 79.851059 88.655472 93.721695 98.296051 108.34419 117.14861 125.95302 135.08769 143.9413 149.85776 158.67622 164.31863 173.12305 179.03951 186.53696"
             y="0"
             sodipodi:role="line"
             id="tspan132">proportion of Cooperators </tspan></text><text
           transform="matrix(1,0,0,-1,191.11131,0.0625)"
           style="font-style:italic;font-variant:normal;font-size:14.4px;font-family:'DejaVu Sans';-inkscape-font-specification:DejaVuSans-Oblique;writing-mode:lr-tb;fill:#000000;fill-opacity:1;fill-rule:nonzero;stroke:none"
           id="text138"><tspan
             x="0"
             y="0"
             id="tspan136">p</tspan></text></g></g><g
       id="g140"><g
         id="g142"
         clip-path="url(#clipPath146)"><path
           d="M 340.29,236.752 H 230.10087 l -2.3608,-3.17987 -2.3608,-3.04513 -2.3608,-2.91861 -2.3608,-2.79964 -2.3608,-2.68766 -2.3608,-2.58212 -2.3608,-2.48256 -2.3608,-2.38854 -2.3608,-2.29965 -2.3608,-2.21554 -2.3608,-2.13588 -2.3608,-2.06036 -2.3608,-1.98872 -2.3608,-1.92069 -2.3608,-1.85604 -2.3608,-1.79456 -2.3608,-1.73605 -2.3608,-1.68034 -2.3608,-1.62723 -2.3608,-1.5766 -2.3608,-1.52828 -2.3608,-1.48215 -2.3608,-1.43809 -2.3608,-1.39597 -2.43167,-1.39579 -2.43167,-1.35495 -2.43166,-1.31593 -2.43167,-1.27859 -2.43167,-1.24288 -2.43166,-1.20869 -2.43167,-1.17594 -2.43166,-1.14458 -2.43167,-1.11453 -2.43167,-1.08571 -2.43167,-1.05809 -2.43166,-1.03159 -2.43167,-1.00618 -2.43166,-0.98179 -2.43167,-0.95839 -2.43167,-0.93593 -2.43167,-0.91438 -2.43166,-0.89369 -2.43167,-0.87384 -2.43167,-0.85479 -2.43166,-0.8365 -2.43167,-0.81897 -2.43167,-0.80214 -2.43166,-0.78602 -2.43167,-0.77056 -2.43167,-0.75576 -2.43166,-0.7416 -2.43167,-0.72805 -2.43167,-0.7151 -2.43166,-0.70276 -2.431669,-0.69098 -2.431667,-0.67979 -2.431667,-0.66915 -2.431666,-0.65908 -2.431667,-0.64957 -2.431667,-0.64062 -2.431666,-0.63222 -2.431667,-0.62439 -2.431667,-0.61713 L 76.175,149.9746 73.743334,149.3702 71.311667,148.77124 68.88,148.17707 66.448334,147.58701 64.016667,147.00034 61.585,146.41628 59.153333,145.83398 56.721667,145.25254 54.29,144.67094"
           style="fill:none;stroke:#000000;stroke-width:3;stroke-linecap:square;stroke-linejoin:round;stroke-miterlimit:10;stroke-dasharray:none;stroke-opacity:1"
           id="path148" /></g></g><g
       id="g150"><g
         id="g152"
         clip-path="url(#clipPath156)"><path
           d="m 340.29,63.098667 h -110.18913 -2.3608 -2.3608 -2.3608 -2.3608 -2.3608 -2.3608 -2.3608 -2.3608 -2.3608 -2.3608 -2.3608 -2.3608 -2.3608 -2.3608 -2.3608 -2.3608 -2.3608 -2.3608 -2.3608 -2.3608 -2.3608 -2.3608 -2.3608 -2.3608 l -2.43167,1.808552 -2.43167,1.752531 -2.43166,1.699064 -2.43167,1.648009 -2.43167,1.599232 -2.43166,1.552611 -2.43167,1.508029 -2.43166,1.465381 -2.43167,1.424566 -2.43167,1.38549 -2.43167,1.348067 -2.43166,1.312215 -2.43167,1.277858 -2.43166,1.244926 -2.43167,1.213352 -2.43167,1.183072 -2.43167,1.154031 -2.43166,1.126173 -2.43167,1.099447 -2.43167,1.073807 -2.43166,1.049208 -2.43167,1.025609 -2.43167,1.002971 -2.43166,0.98126 -2.43167,0.960441 -2.43167,0.940486 -2.43166,0.921364 -2.43167,0.903052 -2.43167,0.885526 -2.43166,0.868763 -2.431669,0.85275 -2.431667,0.83746 -2.431667,0.82289 -2.431666,0.80902 -2.431667,0.79586 -2.431667,0.78337 -2.431666,0.77158 -2.431667,0.76046 -2.431667,0.75004 -2.431667,0.74032 -2.431666,0.7313 -2.431667,0.72301 -2.431667,0.71546 -2.431666,0.70868 -2.431667,0.70273 -2.431667,0.69764 -2.431667,0.69345 -2.431666,0.69027 -2.431667,0.68819"
           style="fill:none;stroke:#000000;stroke-width:1.5;stroke-linecap:butt;stroke-linejoin:round;stroke-miterlimit:10;stroke-dasharray:5.55, 2.4;stroke-dashoffset:0;stroke-opacity:1"
           id="path158" /></g></g><g
       id="g160"><g
         id="g162"
         clip-path="url(#clipPath166)"><path
           d="M 54.29,63.098667 H 173.44167"
           style="fill:none;stroke:#000000;stroke-width:3;stroke-linecap:square;stroke-linejoin:round;stroke-miterlimit:10;stroke-dasharray:none;stroke-opacity:1"
           id="path168" /></g></g><g
       id="g170"><g
         id="g172"
         clip-path="url(#clipPath176)"><path
           d="M 54.29,236.752 H 230.10087"
           style="fill:none;stroke:#000000;stroke-width:1.5;stroke-linecap:butt;stroke-linejoin:round;stroke-miterlimit:10;stroke-dasharray:5.55, 2.4;stroke-dashoffset:0;stroke-opacity:1"
           id="path178" /></g></g><g
       id="g180"><g
         id="g182"
         clip-path="url(#clipPath186)"><path
           d="M 173.44167,45.733333 V 236.752"
           style="fill:none;stroke:#000000;stroke-width:1;stroke-linecap:square;stroke-linejoin:round;stroke-miterlimit:10;stroke-dasharray:none;stroke-opacity:0.5"
           id="path188" /></g></g><g
       id="g190"><g
         id="g192"
         clip-path="url(#clipPath196)"><path
           d="M 230.10087,45.733333 V 236.752"
           style="fill:none;stroke:#000000;stroke-width:1;stroke-linecap:square;stroke-linejoin:round;stroke-miterlimit:10;stroke-dasharray:none;stroke-opacity:0.5"
           id="path198" /></g></g><path
       d="M 54.29,54.416 V 262.8"
       style="fill:none;stroke:#000000;stroke-width:0.8;stroke-linecap:square;stroke-linejoin:miter;stroke-miterlimit:10;stroke-dasharray:none;stroke-opacity:1"
       id="path202" /><path
       d="M 340.29,54.416 V 262.8"
       style="fill:none;stroke:#000000;stroke-width:0.8;stroke-linecap:square;stroke-linejoin:miter;stroke-miterlimit:10;stroke-dasharray:none;stroke-opacity:1"
       id="path204" /><path
       d="m 54.29,54.416 h 286"
       style="fill:none;stroke:#000000;stroke-width:0.8;stroke-linecap:square;stroke-linejoin:miter;stroke-miterlimit:10;stroke-dasharray:none;stroke-opacity:1"
       id="path206" /><path
       d="m 54.29,262.8 h 286"
       style="fill:none;stroke:#000000;stroke-width:0.8;stroke-linecap:square;stroke-linejoin:miter;stroke-miterlimit:10;stroke-dasharray:none;stroke-opacity:1"
       id="path208" /><g
       id="g210"
       transform="translate(89.242717,139.75702)"><text
         transform="matrix(1,0,0,-1,0,0.00625)"
         style="font-style:italic;font-variant:normal;font-size:14.4px;font-family:'DejaVu Sans';-inkscape-font-specification:DejaVuSans-Oblique;writing-mode:lr-tb;fill:#000000;fill-opacity:1;fill-rule:nonzero;stroke:none"
         id="text214"><tspan
           x="0"
           y="0"
           id="tspan212">p</tspan></text><text
         transform="matrix(1,0,0,-1,11.766598,5.51875)"
         style="font-variant:normal;font-weight:normal;font-size:10.08px;font-family:'DejaVu Sans';-inkscape-font-specification:DejaVuSans;writing-mode:lr-tb;fill:#000000;fill-opacity:1;fill-rule:nonzero;stroke:none"
         id="text218"><tspan
           x="0"
           y="0"
           id="tspan216">*</tspan></text><text
         transform="matrix(1,0,0,-1,9.1346741,-3.93125)"
         style="font-style:italic;font-variant:normal;font-size:10.08px;font-family:'DejaVu Sans';-inkscape-font-specification:DejaVuSans-Oblique;writing-mode:lr-tb;fill:#000000;fill-opacity:1;fill-rule:nonzero;stroke:none"
         id="text222"><tspan
           x="0"
           y="0"
           id="tspan220">s</tspan></text></g><g
       id="g224"
       transform="translate(66.077917,91.450153)"><text
         transform="matrix(1,0,0,-1,0,0.00625)"
         style="font-style:italic;font-variant:normal;font-size:14.4px;font-family:'DejaVu Sans';-inkscape-font-specification:DejaVuSans-Oblique;writing-mode:lr-tb;fill:#000000;fill-opacity:1;fill-rule:nonzero;stroke:none"
         id="text228"><tspan
           x="0"
           y="0"
           id="tspan226">p</tspan></text><text
         transform="matrix(1,0,0,-1,11.766598,5.51875)"
         style="font-variant:normal;font-weight:normal;font-size:10.08px;font-family:'DejaVu Sans';-inkscape-font-specification:DejaVuSans;writing-mode:lr-tb;fill:#000000;fill-opacity:1;fill-rule:nonzero;stroke:none"
         id="text232"><tspan
           x="0"
           y="0"
           id="tspan230">*</tspan></text><text
         transform="matrix(1,0,0,-1,9.1346741,-3.93125)"
         style="font-style:italic;font-variant:normal;font-size:10.08px;font-family:'DejaVu Sans';-inkscape-font-specification:DejaVuSans-Oblique;writing-mode:lr-tb;fill:#000000;fill-opacity:1;fill-rule:nonzero;stroke:none"
         id="text236"><tspan
           x="0"
           y="0"
           id="tspan234">u</tspan></text></g><path
       d="m 285.19543,143.23951 c 0,4.45621 0,8.53975 0,12.2506"
       style="fill:none;stroke:#000000;stroke-width:1;stroke-linecap:round;stroke-linejoin:round;stroke-miterlimit:10;stroke-dasharray:none;stroke-opacity:1"
       id="path238" /><path
       d="m 283.19543,151.49011 2,4 2,-4"
       style="fill:none;stroke:#000000;stroke-width:1;stroke-linecap:round;stroke-linejoin:round;stroke-miterlimit:10;stroke-dasharray:none;stroke-opacity:1"
       id="path240" /><path
       d="m 201.77127,136.29338 c 0,4.45621 0,8.53974 0,12.2506"
       style="fill:none;stroke:#000000;stroke-width:1;stroke-linecap:round;stroke-linejoin:round;stroke-miterlimit:10;stroke-dasharray:none;stroke-opacity:1"
       id="path242" /><path
       d="m 199.77127,144.54398 2,4 2,-4"
       style="fill:none;stroke:#000000;stroke-width:1;stroke-linecap:round;stroke-linejoin:round;stroke-miterlimit:10;stroke-dasharray:none;stroke-opacity:1"
       id="path244" /><path
       d="m 201.77127,229.54513 c 0,-2.71983 0,-5.06699 0,-7.04147"
       style="fill:none;stroke:#000000;stroke-width:1;stroke-linecap:round;stroke-linejoin:round;stroke-miterlimit:10;stroke-dasharray:none;stroke-opacity:1"
       id="path246" /><path
       d="m 203.77127,226.50366 -2,-4 -2,4"
       style="fill:none;stroke:#000000;stroke-width:1;stroke-linecap:round;stroke-linejoin:round;stroke-miterlimit:10;stroke-dasharray:none;stroke-opacity:1"
       id="path248" /><path
       d="m 113.86583,122.40111 c 0,4.45621 0,8.53975 0,12.2506"
       style="fill:none;stroke:#000000;stroke-width:1;stroke-linecap:round;stroke-linejoin:round;stroke-miterlimit:10;stroke-dasharray:none;stroke-opacity:1"
       id="path250" /><path
       d="m 111.86583,130.65171 2,4 2,-4"
       style="fill:none;stroke:#000000;stroke-width:1;stroke-linecap:round;stroke-linejoin:round;stroke-miterlimit:10;stroke-dasharray:none;stroke-opacity:1"
       id="path252" /><path
       d="m 113.86583,83.676756 c 0,-4.456211 0,-8.539745 0,-12.250601"
       style="fill:none;stroke:#000000;stroke-width:1;stroke-linecap:round;stroke-linejoin:round;stroke-miterlimit:10;stroke-dasharray:none;stroke-opacity:1"
       id="path254" /><path
       d="m 115.86583,75.426155 -2,-4 -2,4"
       style="fill:none;stroke:#000000;stroke-width:1;stroke-linecap:round;stroke-linejoin:round;stroke-miterlimit:10;stroke-dasharray:none;stroke-opacity:1"
       id="path256" /><path
       d="m 113.86583,208.70716 c 0,-4.45622 0,-8.53975 0,-12.25061"
       style="fill:none;stroke:#000000;stroke-width:1;stroke-linecap:round;stroke-linejoin:round;stroke-miterlimit:10;stroke-dasharray:none;stroke-opacity:1"
       id="path258" /><path
       d="m 115.86583,200.45655 -2,-4 -2,4"
       style="fill:none;stroke:#000000;stroke-width:1;stroke-linecap:round;stroke-linejoin:round;stroke-miterlimit:10;stroke-dasharray:none;stroke-opacity:1"
       id="path260" /><path
       d="m 120.39937,244.18767 h 153.78126 c 1.33333,0 2,0.62671 2,1.88009 v 12.85215 c 0,1.25339 -0.66667,1.88009 -2,1.88009 H 120.39937 c -1.33333,0 -2,-0.6267 -2,-1.88009 v -12.85215 c 0,-1.25338 0.66667,-1.88009 2,-1.88009 z"
       style="fill:#ffffff;fill-opacity:1;fill-rule:nonzero;stroke:#cccccc;stroke-width:0.969558;stroke-linecap:butt;stroke-linejoin:miter;stroke-miterlimit:10;stroke-dasharray:none;stroke-opacity:1"
       id="path262" /><path
       d="m 122.39937,252.70625 h 20"
       style="fill:none;stroke:#000000;stroke-width:3;stroke-linecap:square;stroke-linejoin:round;stroke-miterlimit:10;stroke-dasharray:none;stroke-opacity:1"
       id="path264" /><text
       transform="scale(1,-1)"
       style="font-variant:normal;font-weight:normal;font-size:10px;font-family:'DejaVu Sans';-inkscape-font-specification:DejaVuSans;writing-mode:lr-tb;fill:#000000;fill-opacity:1;fill-rule:nonzero;stroke:none"
       id="text268"
       x="150.39937"
       y="-249.20625"><tspan
         x="150.39937 155.60938 159.52937 165.65936 172.00937 174.78937"
         y="-249.20625"
         sodipodi:role="line"
         id="tspan266">stable</tspan></text><path
       d="m 200.94625,252.70625 h 20"
       style="fill:none;stroke:#000000;stroke-width:1.5;stroke-linecap:butt;stroke-linejoin:round;stroke-miterlimit:10;stroke-dasharray:5.55, 2.4;stroke-dashoffset:0;stroke-opacity:1"
       id="path270" /><text
       transform="scale(1,-1)"
       style="font-variant:normal;font-weight:normal;font-size:10px;font-family:'DejaVu Sans';-inkscape-font-specification:DejaVuSans;writing-mode:lr-tb;fill:#000000;fill-opacity:1;fill-rule:nonzero;stroke:none"
       id="text274"
       x="228.94624"
       y="-249.20625"><tspan
         x="228.94624 235.28625 241.62625 246.83624 250.75626 256.88626 263.23624 266.01624"
         y="-249.20625"
         sodipodi:role="line"
         id="tspan272">unstable</tspan></text><text
       xml:space="preserve"
       style="font-size:14px;line-height:1.25;font-family:sans-serif;-inkscape-font-specification:'sans-serif, Normal';fill:#0000ff;fill-opacity:1;stroke-width:0.75"
       x="260.30591"
       y="-68.409889"
       id="text1186"
       transform="scale(1,-1)"><tspan
         sodipodi:role="line"
         id="tspan1184"
         x="260.30591"
         y="-68.409889"
         style="fill:#0000ff;fill-opacity:1;stroke-width:0.75;font-style:italic">a</tspan></text><text
       xml:space="preserve"
       style="font-size:14px;line-height:1.25;font-family:sans-serif;-inkscape-font-specification:'sans-serif, Normal';fill:#0000ff;fill-opacity:1;stroke-width:0.75"
       x="261.52151"
       y="-220.94629"
       id="text1190"
       transform="scale(1,-1)"><tspan
         sodipodi:role="line"
         id="tspan1188"
         x="261.52151"
         y="-220.94629"
         style="fill:#0000ff;fill-opacity:1;stroke-width:0.75;font-style:italic">b</tspan></text><circle
       style="fill:#0000ff;fill-opacity:1;stroke:#0000ff;stroke-width:1.5"
       id="path1208"
       cx="254.96652"
       cy="-63.098667"
       r="4.6904421"
       transform="scale(1,-1)" /><circle
       style="fill:#0000ff;fill-opacity:1;stroke:#0000ff;stroke-width:1.5"
       id="path1208-3"
       cx="254.96652"
       cy="-236.752"
       r="4.6904421"
       transform="scale(1,-1)" /><path
       style="fill:#0000ff;stroke:#0000ff;stroke-width:2.25;stroke-linecap:butt;stroke-linejoin:miter;stroke-miterlimit:4;stroke-dasharray:none;stroke-opacity:1;marker-end:url(#Arrow1Mend)"
       d="m 254.96652,72.064766 0,150.250664"
       id="path1259"
       sodipodi:nodetypes="cc" /><path
       style="fill:none;stroke:#0000ff;stroke-width:2.25;stroke-linecap:butt;stroke-linejoin:miter;stroke-miterlimit:4;stroke-dasharray:none;stroke-opacity:1;marker-end:url(#marker1350)"
       d="M 247.43499,241.32381 H 226.5732 c 0,0 -15.91366,-18.48294 -25.95597,-27.41147 -10.04231,-8.92853 -35.50207,-25.91607 -35.50207,-25.91607"
       id="path2305"
       sodipodi:nodetypes="cczc" /><text
       xml:space="preserve"
       style="font-size:14px;line-height:1.25;font-family:sans-serif;-inkscape-font-specification:'sans-serif, Normal';stroke-width:0.75"
       x="155.86122"
       y="-161.22121"
       id="text1194"
       transform="scale(1,-1)"><tspan
         sodipodi:role="line"
         id="tspan1192"
         x="155.86122"
         y="-161.22121"
         style="font-style:italic;fill:#0000ff;stroke-width:0.75">c</tspan></text><circle
       style="fill:#0000ff;fill-opacity:1;stroke:#0000ff;stroke-width:1.5"
       id="path1208-3-6"
       cx="159.93544"
       cy="-179.34125"
       r="4.6904421"
       transform="scale(1,-1)" /><path
       style="fill:none;stroke:#0000ff;stroke-width:2.25;stroke-linecap:butt;stroke-linejoin:miter;stroke-miterlimit:4;stroke-dasharray:none;stroke-opacity:1;marker-end:url(#marker1426)"
       d="m 151.52212,182.52148 c 0,0 -26.06581,-11.47226 -40.87702,-16.13338 -14.81122,-4.66112 -48.284084,-12.58359 -48.284084,-12.58359"
       id="path2369"
       sodipodi:nodetypes="czc" /><circle
       style="fill:#0000ff;fill-opacity:1;stroke:#0000ff;stroke-width:1.5"
       id="path1208-3-6-3"
       cx="54.290001"
       cy="-145.272"
       r="4.6904421"
       transform="scale(1,-1)" /><text
       xml:space="preserve"
       style="font-size:14px;line-height:1.25;font-family:sans-serif;-inkscape-font-specification:'sans-serif, Normal';fill:#0000ff;stroke-width:0.75"
       x="58.386826"
       y="-130.65727"
       id="text2475"
       transform="scale(1,-1)"><tspan
         sodipodi:role="line"
         id="tspan2473"
         x="58.386826"
         y="-130.65727"
         style="fill:#0000ff;stroke-width:0.75;font-style:italic">d</tspan></text></g></svg>
