<?xml version="1.0" encoding="UTF-8" standalone="no"?>
<svg
   xmlns:dc="http://purl.org/dc/elements/1.1/"
   xmlns:cc="http://creativecommons.org/ns#"
   xmlns:rdf="http://www.w3.org/1999/02/22-rdf-syntax-ns#"
   xmlns:svg="http://www.w3.org/2000/svg"
   xmlns="http://www.w3.org/2000/svg"
   xmlns:sodipodi="http://sodipodi.sourceforge.net/DTD/sodipodi-0.dtd"
   xmlns:inkscape="http://www.inkscape.org/namespaces/inkscape"
   version="1.1"
   id="svg2"
   xml:space="preserve"
   width="474.23999"
   height="364.79999"
   viewBox="0 0 474.23999 364.79999"
   sodipodi:docname="isocline_detailed_5.svg"
   inkscape:version="1.0.2 (e86c870879, 2021-01-15)"><metadata
     id="metadata8"><rdf:RDF><cc:Work
         rdf:about=""><dc:format>image/svg+xml</dc:format><dc:type
           rdf:resource="http://purl.org/dc/dcmitype/StillImage" /><dc:title /></cc:Work></rdf:RDF></metadata><defs
     id="defs6"><marker
       style="overflow:visible;"
       id="marker1462"
       refX="0.0"
       refY="0.0"
       orient="auto"
       inkscape:stockid="Arrow1Mend"
       inkscape:isstock="true"><path
         transform="scale(0.4) rotate(180) translate(10,0)"
         style="fill-rule:evenodd;stroke:#0000ff;stroke-width:1pt;stroke-opacity:1;fill:#0000ff;fill-opacity:1"
         d="M 0.0,0.0 L 5.0,-5.0 L -12.5,0.0 L 5.0,5.0 L 0.0,0.0 z "
         id="path1460" /></marker><marker
       style="overflow:visible;"
       id="marker1386"
       refX="0.0"
       refY="0.0"
       orient="auto"
       inkscape:stockid="Arrow1Mend"
       inkscape:isstock="true"
       inkscape:collect="always"><path
         transform="scale(0.4) rotate(180) translate(10,0)"
         style="fill-rule:evenodd;stroke:#0000ff;stroke-width:1pt;stroke-opacity:1;fill:#0000ff;fill-opacity:1"
         d="M 0.0,0.0 L 5.0,-5.0 L -12.5,0.0 L 5.0,5.0 L 0.0,0.0 z "
         id="path1384" /></marker><marker
       style="overflow:visible;"
       id="Arrow1Mend"
       refX="0.0"
       refY="0.0"
       orient="auto"
       inkscape:stockid="Arrow1Mend"
       inkscape:isstock="true"
       inkscape:collect="always"><path
         transform="scale(0.4) rotate(180) translate(10,0)"
         style="fill-rule:evenodd;stroke:#0000ff;stroke-width:1pt;stroke-opacity:1;fill:#0000ff;fill-opacity:1"
         d="M 0.0,0.0 L 5.0,-5.0 L -12.5,0.0 L 5.0,5.0 L 0.0,0.0 z "
         id="path1051" /></marker><marker
       style="overflow:visible;"
       id="marker1637"
       refX="0.0"
       refY="0.0"
       orient="auto"
       inkscape:stockid="Arrow1Lend"
       inkscape:isstock="true"><path
         transform="scale(0.8) rotate(180) translate(12.5,0)"
         style="fill-rule:evenodd;stroke:#0000ff;stroke-width:1pt;stroke-opacity:1;fill:#0000ff;fill-opacity:1"
         d="M 0.0,0.0 L 5.0,-5.0 L -12.5,0.0 L 5.0,5.0 L 0.0,0.0 z "
         id="path1635" /></marker><clipPath
       clipPathUnits="userSpaceOnUse"
       id="clipPath22"><path
         d="m 54.29,57.08 h 286 V 262.8 h -286 z"
         id="path20" /></clipPath><clipPath
       clipPathUnits="userSpaceOnUse"
       id="clipPath32"><path
         d="m 54.29,57.08 h 286 V 262.8 h -286 z"
         id="path30" /></clipPath><clipPath
       clipPathUnits="userSpaceOnUse"
       id="clipPath42"><path
         d="m 54.29,57.08 h 286 V 262.8 h -286 z"
         id="path40" /></clipPath><clipPath
       clipPathUnits="userSpaceOnUse"
       id="clipPath52"><path
         d="m 54.29,57.08 h 286 V 262.8 h -286 z"
         id="path50" /></clipPath><clipPath
       clipPathUnits="userSpaceOnUse"
       id="clipPath80"><path
         d="M -1021,-463 H 1794 V 1233 H -1021 Z"
         id="path78" /></clipPath><clipPath
       clipPathUnits="userSpaceOnUse"
       id="clipPath176"><path
         d="m 54.29,57.08 h 286 V 262.8 h -286 z"
         id="path174" /></clipPath><clipPath
       clipPathUnits="userSpaceOnUse"
       id="clipPath186"><path
         d="m 54.29,57.08 h 286 V 262.8 h -286 z"
         id="path184" /></clipPath><clipPath
       clipPathUnits="userSpaceOnUse"
       id="clipPath196"><path
         d="m 54.29,57.08 h 286 V 262.8 h -286 z"
         id="path194" /></clipPath><clipPath
       clipPathUnits="userSpaceOnUse"
       id="clipPath206"><path
         d="m 54.29,57.08 h 286 V 262.8 h -286 z"
         id="path204" /></clipPath><clipPath
       clipPathUnits="userSpaceOnUse"
       id="clipPath216"><path
         d="m 54.29,57.08 h 286 V 262.8 h -286 z"
         id="path214" /></clipPath><clipPath
       clipPathUnits="userSpaceOnUse"
       id="clipPath226"><path
         d="m 54.29,57.08 h 286 V 262.8 h -286 z"
         id="path224" /></clipPath><clipPath
       clipPathUnits="userSpaceOnUse"
       id="clipPath236"><path
         d="m 54.29,57.08 h 286 V 262.8 h -286 z"
         id="path234" /></clipPath></defs><sodipodi:namedview
     pagecolor="#ffffff"
     bordercolor="#666666"
     borderopacity="1"
     objecttolerance="10"
     gridtolerance="10"
     guidetolerance="10"
     inkscape:pageopacity="0"
     inkscape:pageshadow="2"
     inkscape:window-width="1200"
     inkscape:window-height="1886"
     id="namedview4"
     showgrid="false"
     inkscape:zoom="1.6475899"
     inkscape:cx="237.33458"
     inkscape:cy="-23.6047"
     inkscape:window-x="0"
     inkscape:window-y="0"
     inkscape:window-maximized="1"
     inkscape:current-layer="g10"
     inkscape:document-rotation="0" /><g
     id="g10"
     inkscape:groupmode="layer"
     inkscape:label="isocline_detailed_5"
     transform="matrix(1.3333333,0,0,-1.3333333,0,364.8)"><path
       d="M 0,0 H 355.68 V 273.6 H 0 Z"
       style="fill:#ffffff;fill-opacity:1;fill-rule:nonzero;stroke:none"
       id="path12" /><path
       d="m 54.29,57.08 h 286 V 262.8 h -286 z"
       style="fill:#ffffff;fill-opacity:1;fill-rule:nonzero;stroke:none"
       id="path14" /><g
       id="g16"><g
         id="g18"
         clip-path="url(#clipPath22)"><path
           d="m 92.881692,161.12155 c 0.795609,0 1.55874,0.3161 2.12132,0.87868 0.562581,0.56258 0.87868,1.32572 0.87868,2.12132 0,0.79561 -0.316099,1.55874 -0.87868,2.12132 -0.56258,0.56259 -1.325711,0.87868 -2.12132,0.87868 -0.795609,0 -1.55874,-0.31609 -2.12132,-0.87868 -0.562581,-0.56258 -0.87868,-1.32571 -0.87868,-2.12132 0,-0.7956 0.316099,-1.55874 0.87868,-2.12132 0.56258,-0.56258 1.325711,-0.87868 2.12132,-0.87868 z"
           style="fill:#000000;fill-opacity:1;fill-rule:nonzero;stroke:#000000;stroke-width:1;stroke-linecap:butt;stroke-linejoin:round;stroke-miterlimit:10;stroke-dasharray:none;stroke-opacity:1"
           id="path24" /></g></g><g
       id="g26"><g
         id="g28"
         clip-path="url(#clipPath32)"><path
           d="M 340.29,65.651667 V 237.085 H 230.10087 V 65.651667 Z"
           style="fill:#0000ff;fill-opacity:0.25;fill-rule:nonzero;stroke:#0000ff;stroke-width:1;stroke-linecap:butt;stroke-linejoin:miter;stroke-miterlimit:10;stroke-dasharray:none;stroke-opacity:0.25"
           id="path34" /></g></g><g
       id="g36"><g
         id="g38"
         clip-path="url(#clipPath42)"><path
           d="M 204.54815,65.651667 V 237.085 H 54.29 V 65.651667 Z"
           style="fill:#ff0000;fill-opacity:0.25;fill-rule:nonzero;stroke:#ff0000;stroke-width:1;stroke-linecap:butt;stroke-linejoin:miter;stroke-miterlimit:10;stroke-dasharray:none;stroke-opacity:0.25"
           id="path44" /></g></g><g
       id="g46"><g
         id="g48"
         clip-path="url(#clipPath52)"><path
           d="M 92.881692,65.651667 V 237.085 H 54.29 V 65.651667 Z"
           style="fill:#000000;fill-opacity:0.25;fill-rule:nonzero;stroke:#000000;stroke-width:1;stroke-linecap:butt;stroke-linejoin:miter;stroke-miterlimit:10;stroke-dasharray:none;stroke-opacity:0.25"
           id="path54" /></g></g><g
       id="g56"><path
         d="m 54.29,57.08 v -3.5"
         style="fill:#000000;fill-opacity:1;fill-rule:nonzero;stroke:#000000;stroke-width:0.8;stroke-linecap:butt;stroke-linejoin:round;stroke-miterlimit:10;stroke-dasharray:none;stroke-opacity:1"
         id="path58" /><text
         transform="matrix(1,0,0,-1,49.711875,39.1425)"
         style="font-variant:normal;font-weight:normal;font-size:14.4px;font-family:'DejaVu Sans';-inkscape-font-specification:DejaVuSans;writing-mode:lr-tb;fill:#000000;fill-opacity:1;fill-rule:nonzero;stroke:none"
         id="text62"><tspan
           x="0"
           y="0"
           id="tspan60">0</tspan></text><path
         d="m 92.881692,57.08 v -3.5"
         style="fill:#000000;fill-opacity:1;fill-rule:nonzero;stroke:#000000;stroke-width:0.8;stroke-linecap:butt;stroke-linejoin:round;stroke-miterlimit:10;stroke-dasharray:none;stroke-opacity:1"
         id="path64" /><g
         id="g66"
         transform="translate(87.881692,36.08)"><text
           transform="matrix(1,0,0,-1,0,0.809375)"
           style="font-style:italic;font-variant:normal;font-size:14.4px;font-family:'DejaVu Sans';-inkscape-font-specification:DejaVuSans-Oblique;writing-mode:lr-tb;fill:#000000;fill-opacity:1;fill-rule:nonzero;stroke:none"
           id="text70"><tspan
             x="0"
             y="0"
             id="tspan68">h</tspan></text><g
           id="g72"
           transform="matrix(0.0144,0,0,0.0144,9.1239052,5.484375)"><g
             id="g74"><g
               id="g76"
               clip-path="url(#clipPath80)"><path
                 d="m -285,800 h 72 L -93,616 h -68 l -88,120 -88,-120 h -68 l 120,184 m 36,-240 v 0"
                 style="fill:#000000;fill-opacity:1;fill-rule:nonzero;stroke:none"
                 id="path82" /></g></g></g></g><path
         d="m 204.54815,57.08 v -3.5"
         style="fill:#000000;fill-opacity:1;fill-rule:nonzero;stroke:#000000;stroke-width:0.8;stroke-linecap:butt;stroke-linejoin:round;stroke-miterlimit:10;stroke-dasharray:none;stroke-opacity:1"
         id="path84" /><g
         id="g86"
         transform="translate(196.54815,39.08)"><text
           transform="matrix(1,0,0,-1,0,0.0625)"
           style="font-style:italic;font-variant:normal;font-size:14.4px;font-family:'DejaVu Sans';-inkscape-font-specification:DejaVuSans-Oblique;writing-mode:lr-tb;fill:#000000;fill-opacity:1;fill-rule:nonzero;stroke:none"
           id="text90"><tspan
             x="0"
             y="0"
             id="tspan88">h</tspan></text><text
           transform="matrix(1,0,0,-1,9.1206207,-2.3)"
           style="font-variant:normal;font-weight:normal;font-size:10.08px;font-family:'DejaVu Sans';-inkscape-font-specification:DejaVuSans;writing-mode:lr-tb;fill:#000000;fill-opacity:1;fill-rule:nonzero;stroke:none"
           id="text94"><tspan
             x="0"
             y="0"
             id="tspan92">1</tspan></text></g><path
         d="m 230.10087,57.08 v -3.5"
         style="fill:#000000;fill-opacity:1;fill-rule:nonzero;stroke:#000000;stroke-width:0.8;stroke-linecap:butt;stroke-linejoin:round;stroke-miterlimit:10;stroke-dasharray:none;stroke-opacity:1"
         id="path96" /><g
         id="g98"
         transform="translate(222.10087,39.08)"><text
           transform="matrix(1,0,0,-1,0,0.0625)"
           style="font-style:italic;font-variant:normal;font-size:14.4px;font-family:'DejaVu Sans';-inkscape-font-specification:DejaVuSans-Oblique;writing-mode:lr-tb;fill:#000000;fill-opacity:1;fill-rule:nonzero;stroke:none"
           id="text102"><tspan
             x="0"
             y="0"
             id="tspan100">h</tspan></text><text
           transform="matrix(1,0,0,-1,9.1206207,-2.3)"
           style="font-variant:normal;font-weight:normal;font-size:10.08px;font-family:'DejaVu Sans';-inkscape-font-specification:DejaVuSans;writing-mode:lr-tb;fill:#000000;fill-opacity:1;fill-rule:nonzero;stroke:none"
           id="text106"><tspan
             x="0"
             y="0"
             id="tspan104">0</tspan></text></g><path
         d="m 340.29,57.08 v -3.5"
         style="fill:#000000;fill-opacity:1;fill-rule:nonzero;stroke:#000000;stroke-width:0.8;stroke-linecap:butt;stroke-linejoin:round;stroke-miterlimit:10;stroke-dasharray:none;stroke-opacity:1"
         id="path108" /><text
         transform="matrix(1,0,0,-1,335.71187,39.1425)"
         style="font-variant:normal;font-weight:normal;font-size:14.4px;font-family:'DejaVu Sans';-inkscape-font-specification:DejaVuSans;writing-mode:lr-tb;fill:#000000;fill-opacity:1;fill-rule:nonzero;stroke:none"
         id="text112"><tspan
           x="0"
           y="0"
           id="tspan110">1</tspan></text><g
         id="g114"
         transform="translate(152.29,18.08)"><text
           transform="matrix(1,0,0,-1,0,0.0625)"
           style="font-variant:normal;font-weight:normal;font-size:14.4px;font-family:'DejaVu Sans';-inkscape-font-specification:DejaVuSans;writing-mode:lr-tb;fill:#000000;fill-opacity:1;fill-rule:nonzero;stroke:none"
           id="text118"><tspan
             x="0 9.1206207 17.925034 31.943237 40.74765 49.882324 59.002945 63.001114 66.999283 75.51561"
             y="0"
             sodipodi:role="line"
             id="tspan116">homophily </tspan></text><text
           transform="matrix(1,0,0,-1,80.089966,0.0625)"
           style="font-style:italic;font-variant:normal;font-size:14.4px;font-family:'DejaVu Sans';-inkscape-font-specification:DejaVuSans-Oblique;writing-mode:lr-tb;fill:#000000;fill-opacity:1;fill-rule:nonzero;stroke:none"
           id="text122"><tspan
             x="0"
             y="0"
             id="tspan120">h</tspan></text></g><path
         d="m 54.29,65.651667 h -3.5"
         style="fill:#000000;fill-opacity:1;fill-rule:nonzero;stroke:#000000;stroke-width:0.8;stroke-linecap:butt;stroke-linejoin:round;stroke-miterlimit:10;stroke-dasharray:none;stroke-opacity:1"
         id="path124" /><text
         transform="matrix(1,0,0,-1,31.38375,61.854792)"
         style="font-variant:normal;font-weight:normal;font-size:10px;font-family:'DejaVu Sans';-inkscape-font-specification:DejaVuSans;writing-mode:lr-tb;fill:#000000;fill-opacity:1;fill-rule:nonzero;stroke:none"
         id="text128"><tspan
           x="0 6.3600001 9.54"
           y="0"
           sodipodi:role="line"
           id="tspan126">0.0</tspan></text><path
         d="m 54.29,99.938333 h -3.5"
         style="fill:#000000;fill-opacity:1;fill-rule:nonzero;stroke:#000000;stroke-width:0.8;stroke-linecap:butt;stroke-linejoin:round;stroke-miterlimit:10;stroke-dasharray:none;stroke-opacity:1"
         id="path130" /><text
         transform="matrix(1,0,0,-1,31.38375,96.141458)"
         style="font-variant:normal;font-weight:normal;font-size:10px;font-family:'DejaVu Sans';-inkscape-font-specification:DejaVuSans;writing-mode:lr-tb;fill:#000000;fill-opacity:1;fill-rule:nonzero;stroke:none"
         id="text134"><tspan
           x="0 6.3600001 9.54"
           y="0"
           sodipodi:role="line"
           id="tspan132">0.2</tspan></text><path
         d="m 54.29,134.225 h -3.5"
         style="fill:#000000;fill-opacity:1;fill-rule:nonzero;stroke:#000000;stroke-width:0.8;stroke-linecap:butt;stroke-linejoin:round;stroke-miterlimit:10;stroke-dasharray:none;stroke-opacity:1"
         id="path136" /><text
         transform="matrix(1,0,0,-1,31.38375,130.42813)"
         style="font-variant:normal;font-weight:normal;font-size:10px;font-family:'DejaVu Sans';-inkscape-font-specification:DejaVuSans;writing-mode:lr-tb;fill:#000000;fill-opacity:1;fill-rule:nonzero;stroke:none"
         id="text140"><tspan
           x="0 6.3600001 9.54"
           y="0"
           sodipodi:role="line"
           id="tspan138">0.4</tspan></text><path
         d="m 54.29,168.51167 h -3.5"
         style="fill:#000000;fill-opacity:1;fill-rule:nonzero;stroke:#000000;stroke-width:0.8;stroke-linecap:butt;stroke-linejoin:round;stroke-miterlimit:10;stroke-dasharray:none;stroke-opacity:1"
         id="path142" /><text
         transform="matrix(1,0,0,-1,31.38375,164.71479)"
         style="font-variant:normal;font-weight:normal;font-size:10px;font-family:'DejaVu Sans';-inkscape-font-specification:DejaVuSans;writing-mode:lr-tb;fill:#000000;fill-opacity:1;fill-rule:nonzero;stroke:none"
         id="text146"><tspan
           x="0 6.3600001 9.54"
           y="0"
           sodipodi:role="line"
           id="tspan144">0.6</tspan></text><path
         d="m 54.29,202.79833 h -3.5"
         style="fill:#000000;fill-opacity:1;fill-rule:nonzero;stroke:#000000;stroke-width:0.8;stroke-linecap:butt;stroke-linejoin:round;stroke-miterlimit:10;stroke-dasharray:none;stroke-opacity:1"
         id="path148" /><text
         transform="matrix(1,0,0,-1,31.38375,199.00146)"
         style="font-variant:normal;font-weight:normal;font-size:10px;font-family:'DejaVu Sans';-inkscape-font-specification:DejaVuSans;writing-mode:lr-tb;fill:#000000;fill-opacity:1;fill-rule:nonzero;stroke:none"
         id="text152"><tspan
           x="0 6.3600001 9.54"
           y="0"
           sodipodi:role="line"
           id="tspan150">0.8</tspan></text><path
         d="m 54.29,237.085 h -3.5"
         style="fill:#000000;fill-opacity:1;fill-rule:nonzero;stroke:#000000;stroke-width:0.8;stroke-linecap:butt;stroke-linejoin:round;stroke-miterlimit:10;stroke-dasharray:none;stroke-opacity:1"
         id="path154" /><text
         transform="matrix(1,0,0,-1,31.38375,233.28812)"
         style="font-variant:normal;font-weight:normal;font-size:10px;font-family:'DejaVu Sans';-inkscape-font-specification:DejaVuSans;writing-mode:lr-tb;fill:#000000;fill-opacity:1;fill-rule:nonzero;stroke:none"
         id="text158"><tspan
           x="0 6.3600001 9.54"
           y="0"
           sodipodi:role="line"
           id="tspan156">1.0</tspan></text><g
         id="g160"
         transform="rotate(90,-17.528125,41.911875)"><text
           transform="matrix(1,0,0,-1,0,0.0625)"
           style="font-variant:normal;font-weight:normal;font-size:14.4px;font-family:'DejaVu Sans';-inkscape-font-specification:DejaVuSans;writing-mode:lr-tb;fill:#000000;fill-opacity:1;fill-rule:nonzero;stroke:none"
           id="text164"><tspan
             x="0 9.1346741 15.051132 23.855545 32.990219 41.794632 47.71109 53.3535 57.351669 66.156082 75.276703 79.851059 88.655472 93.721695 98.296051 108.34419 117.14861 125.95302 135.08769 143.9413 149.85776 158.67622 164.31863 173.12305 179.03951 186.53696"
             y="0"
             sodipodi:role="line"
             id="tspan162">proportion of Cooperators </tspan></text><text
           transform="matrix(1,0,0,-1,191.11131,0.0625)"
           style="font-style:italic;font-variant:normal;font-size:14.4px;font-family:'DejaVu Sans';-inkscape-font-specification:DejaVuSans-Oblique;writing-mode:lr-tb;fill:#000000;fill-opacity:1;fill-rule:nonzero;stroke:none"
           id="text168"><tspan
             x="0"
             y="0"
             id="tspan166">p</tspan></text></g></g><g
       id="g170"><g
         id="g172"
         clip-path="url(#clipPath176)"><path
           d="m 340.29,237.085 h -110.18913 -1.0647 -1.0647 -1.06469 -1.0647 -1.0647 -1.06469 -1.0647 -1.0647 -1.06469 -1.0647 -1.0647 -1.06469 -1.0647 -1.0647 -1.06469 -1.0647 -1.0647 -1.06469 -1.0647 -1.0647 -1.06469 -1.0647 -1.0647 -1.06469 l -2.27891,-2.22783 -2.27891,-2.15408 -2.27891,-2.08418 -2.2789,-2.01788 -2.27891,-1.95498 -2.27891,-1.89525 -2.2789,-1.83855 -2.27891,-1.78467 -2.27891,-1.73349 -2.27891,-1.68486 -2.2789,-1.63862 -2.27891,-1.5947 -2.27891,-1.55296 -2.27891,-1.51329 -2.2789,-1.47562 -2.27891,-1.43987 -2.27891,-1.40594 -2.2789,-1.37379 -2.27891,-1.34335 -2.27891,-1.31455 -2.27891,-1.28737 -2.2789,-1.26177 -2.27891,-1.23771 -2.27891,-1.21517 -2.2789,-1.19416 -2.27891,-1.17466 -2.27891,-1.15667 -2.27891,-1.14023 -2.2789,-1.12538 -2.27891,-1.11215 -2.27891,-1.10063 -2.27891,-1.09093 -2.2789,-1.08314 -2.27891,-1.07747 -2.27891,-1.07412 -2.2789,-1.07337 -2.27891,-1.07562 -2.27891,-1.08135 -2.27891,-1.09126 -2.2789,-1.10627 -2.27891,-1.12773 -2.27891,-1.15762 -2.27891,-1.19896 -2.2789,-1.25672 -2.27891,-1.33961 -2.278906,-1.4649 -2.278908,-1.67323 -2.278907,-2.09728 -2.278907,-4.53154"
           style="fill:none;stroke:#000000;stroke-width:3;stroke-linecap:square;stroke-linejoin:round;stroke-miterlimit:10;stroke-dasharray:none;stroke-opacity:1"
           id="path178" /></g></g><g
       id="g180"><g
         id="g182"
         clip-path="url(#clipPath186)"><path
           d="M 340.29,65.651667 H 230.10087 l -1.0647,1.476969 -1.0647,1.448677 -1.06469,1.421198 -1.0647,1.394502 -1.0647,1.368564 -1.06469,1.343353 -1.0647,1.318844 -1.0647,1.295012 -1.06469,1.271834 -1.0647,1.249287 -1.0647,1.227349 -1.06469,1.205999 -1.0647,1.185217 -1.0647,1.164986 -1.06469,1.145284 -1.0647,1.126097 -1.0647,1.107408 -1.06469,1.089198 -1.0647,1.071455 -1.0647,1.054163 -1.06469,1.037308 -1.0647,1.020876 -1.0647,1.004854 -1.06469,0.989231 -2.27891,2.066644 -2.27891,2.000432 -2.27891,1.937612 -2.2789,1.87797 -2.27891,1.82134 -2.27891,1.76754 -2.2789,1.71641 -2.27891,1.6678 -2.27891,1.62158 -2.27891,1.57765 -2.2789,1.53585 -2.27891,1.49613 -2.27891,1.45835 -2.27891,1.42245 -2.2789,1.38835 -2.27891,1.35597 -2.27891,1.32526 -2.2789,1.29613 -2.27891,1.26858 -2.27891,1.24253 -2.27891,1.21795 -2.2789,1.19483 -2.27891,1.17312 -2.27891,1.15283 -2.2789,1.13395 -2.27891,1.11647 -2.27891,1.10043 -2.27891,1.08583 -2.2789,1.07273 -2.27891,1.06119 -2.27891,1.05126 -2.27891,1.04309 -2.2789,1.03677 -2.27891,1.03249 -2.27891,1.03046 -2.2789,1.031 -2.27891,1.03447 -2.27891,1.04136 -2.27891,1.05238 -2.2789,1.06846 -2.27891,1.09094 -2.27891,1.12182 -2.27891,1.1641 -2.2789,1.22275 -2.27891,1.3065 -2.278906,1.43263 -2.278908,1.64175 -2.278907,2.06657 -2.278907,4.50155"
           style="fill:none;stroke:#000000;stroke-width:1.5;stroke-linecap:butt;stroke-linejoin:round;stroke-miterlimit:10;stroke-dasharray:5.55, 2.4;stroke-dashoffset:0;stroke-opacity:1"
           id="path188" /></g></g><g
       id="g190"><g
         id="g192"
         clip-path="url(#clipPath196)"><path
           d="M 54.29,65.651667 H 230.10087"
           style="fill:none;stroke:#000000;stroke-width:3;stroke-linecap:square;stroke-linejoin:round;stroke-miterlimit:10;stroke-dasharray:none;stroke-opacity:1"
           id="path198" /></g></g><g
       id="g200"><g
         id="g202"
         clip-path="url(#clipPath206)"><path
           d="M 54.29,237.085 H 204.54815"
           style="fill:none;stroke:#000000;stroke-width:1.5;stroke-linecap:butt;stroke-linejoin:round;stroke-miterlimit:10;stroke-dasharray:5.55, 2.4;stroke-dashoffset:0;stroke-opacity:1"
           id="path208" /></g></g><g
       id="g210"><g
         id="g212"
         clip-path="url(#clipPath216)"><path
           d="M 92.881692,48.508333 V 237.085"
           style="fill:none;stroke:#000000;stroke-width:1;stroke-linecap:square;stroke-linejoin:round;stroke-miterlimit:10;stroke-dasharray:none;stroke-opacity:0.5"
           id="path218" /></g></g><g
       id="g220"><g
         id="g222"
         clip-path="url(#clipPath226)"><path
           d="M 230.10087,48.508333 V 237.085"
           style="fill:none;stroke:#000000;stroke-width:1;stroke-linecap:square;stroke-linejoin:round;stroke-miterlimit:10;stroke-dasharray:none;stroke-opacity:0.5"
           id="path228" /></g></g><g
       id="g230"><g
         id="g232"
         clip-path="url(#clipPath236)"><path
           d="M 204.54815,48.508333 V 237.085"
           style="fill:none;stroke:#000000;stroke-width:1;stroke-linecap:square;stroke-linejoin:round;stroke-miterlimit:10;stroke-dasharray:none;stroke-opacity:0.5"
           id="path238" /></g></g><path
       d="M 54.29,57.08 V 262.8"
       style="fill:none;stroke:#000000;stroke-width:0.8;stroke-linecap:square;stroke-linejoin:miter;stroke-miterlimit:10;stroke-dasharray:none;stroke-opacity:1"
       id="path242" /><path
       d="M 340.29,57.08 V 262.8"
       style="fill:none;stroke:#000000;stroke-width:0.8;stroke-linecap:square;stroke-linejoin:miter;stroke-miterlimit:10;stroke-dasharray:none;stroke-opacity:1"
       id="path244" /><path
       d="m 54.29,57.08 h 286"
       style="fill:none;stroke:#000000;stroke-width:0.8;stroke-linecap:square;stroke-linejoin:miter;stroke-miterlimit:10;stroke-dasharray:none;stroke-opacity:1"
       id="path246" /><path
       d="m 54.29,262.8 h 286"
       style="fill:none;stroke:#000000;stroke-width:0.8;stroke-linecap:square;stroke-linejoin:miter;stroke-miterlimit:10;stroke-dasharray:none;stroke-opacity:1"
       id="path248" /><g
       id="g250"
       transform="translate(176.51776,198.74907)"><text
         transform="matrix(1,0,0,-1,0,0.00625)"
         style="font-style:italic;font-variant:normal;font-size:14.4px;font-family:'DejaVu Sans';-inkscape-font-specification:DejaVuSans-Oblique;writing-mode:lr-tb;fill:#000000;fill-opacity:1;fill-rule:nonzero;stroke:none"
         id="text254"><tspan
           x="0"
           y="0"
           id="tspan252">p</tspan></text><text
         transform="matrix(1,0,0,-1,11.766598,5.51875)"
         style="font-variant:normal;font-weight:normal;font-size:10.08px;font-family:'DejaVu Sans';-inkscape-font-specification:DejaVuSans;writing-mode:lr-tb;fill:#000000;fill-opacity:1;fill-rule:nonzero;stroke:none"
         id="text258"><tspan
           x="0"
           y="0"
           id="tspan256">*</tspan></text><text
         transform="matrix(1,0,0,-1,9.1346741,-3.93125)"
         style="font-style:italic;font-variant:normal;font-size:10.08px;font-family:'DejaVu Sans';-inkscape-font-specification:DejaVuSans-Oblique;writing-mode:lr-tb;fill:#000000;fill-opacity:1;fill-rule:nonzero;stroke:none"
         id="text262"><tspan
           x="0"
           y="0"
           id="tspan260">s</tspan></text></g><g
       id="g264"
       transform="translate(165.57503,97.253569)"><text
         transform="matrix(1,0,0,-1,0,0.00625)"
         style="font-style:italic;font-variant:normal;font-size:14.4px;font-family:'DejaVu Sans';-inkscape-font-specification:DejaVuSans-Oblique;writing-mode:lr-tb;fill:#000000;fill-opacity:1;fill-rule:nonzero;stroke:none"
         id="text268"><tspan
           x="0"
           y="0"
           id="tspan266">p</tspan></text><text
         transform="matrix(1,0,0,-1,11.766598,5.51875)"
         style="font-variant:normal;font-weight:normal;font-size:10.08px;font-family:'DejaVu Sans';-inkscape-font-specification:DejaVuSans;writing-mode:lr-tb;fill:#000000;fill-opacity:1;fill-rule:nonzero;stroke:none"
         id="text272"><tspan
           x="0"
           y="0"
           id="tspan270">*</tspan></text><text
         transform="matrix(1,0,0,-1,9.1346741,-3.93125)"
         style="font-style:italic;font-variant:normal;font-size:10.08px;font-family:'DejaVu Sans';-inkscape-font-specification:DejaVuSans-Oblique;writing-mode:lr-tb;fill:#000000;fill-opacity:1;fill-rule:nonzero;stroke:none"
         id="text276"><tspan
           x="0"
           y="0"
           id="tspan274">u</tspan></text></g><path
       d="m 285.19543,144.79309 c 0,4.3821 0,8.39153 0,12.02827"
       style="fill:none;stroke:#000000;stroke-width:1;stroke-linecap:round;stroke-linejoin:round;stroke-miterlimit:10;stroke-dasharray:none;stroke-opacity:1"
       id="path278" /><path
       d="m 283.19543,152.82136 2,4 2,-4"
       style="fill:none;stroke:#000000;stroke-width:1;stroke-linecap:round;stroke-linejoin:round;stroke-miterlimit:10;stroke-dasharray:none;stroke-opacity:1"
       id="path280" /><path
       d="m 217.32451,153.36476 c 0,4.3821 0,8.39152 0,12.02827"
       style="fill:none;stroke:#000000;stroke-width:1;stroke-linecap:round;stroke-linejoin:round;stroke-miterlimit:10;stroke-dasharray:none;stroke-opacity:1"
       id="path282" /><path
       d="m 215.32451,161.39303 2,4 2,-4"
       style="fill:none;stroke:#000000;stroke-width:1;stroke-linecap:round;stroke-linejoin:round;stroke-miterlimit:10;stroke-dasharray:none;stroke-opacity:1"
       id="path284" /><path
       d="m 217.32451,75.650968 c 0,-2.667457 0,-4.962236 0,-6.884337"
       style="fill:none;stroke:#000000;stroke-width:1;stroke-linecap:round;stroke-linejoin:round;stroke-miterlimit:10;stroke-dasharray:none;stroke-opacity:1"
       id="path286" /><path
       d="m 219.32451,72.766631 -2,-4 -2,4"
       style="fill:none;stroke:#000000;stroke-width:1;stroke-linecap:round;stroke-linejoin:round;stroke-miterlimit:10;stroke-dasharray:none;stroke-opacity:1"
       id="path288" /><path
       d="m 148.71492,156.79343 c 0,4.3821 0,8.39152 0,12.02826"
       style="fill:none;stroke:#000000;stroke-width:1;stroke-linecap:round;stroke-linejoin:round;stroke-miterlimit:10;stroke-dasharray:none;stroke-opacity:1"
       id="path290" /><path
       d="m 146.71492,164.82169 2,4 2,-4"
       style="fill:none;stroke:#000000;stroke-width:1;stroke-linecap:round;stroke-linejoin:round;stroke-miterlimit:10;stroke-dasharray:none;stroke-opacity:1"
       id="path292" /><path
       d="m 148.71492,97.941905 c 0,-4.3821 0,-8.391522 0,-12.028267"
       style="fill:none;stroke:#000000;stroke-width:1;stroke-linecap:round;stroke-linejoin:round;stroke-miterlimit:10;stroke-dasharray:none;stroke-opacity:1"
       id="path294" /><path
       d="m 150.71492,89.913638 -2,-4 -2,4"
       style="fill:none;stroke:#000000;stroke-width:1;stroke-linecap:round;stroke-linejoin:round;stroke-miterlimit:10;stroke-dasharray:none;stroke-opacity:1"
       id="path296" /><path
       d="m 148.71492,226.5169 c 0,-4.3821 0,-8.39152 0,-12.02826"
       style="fill:none;stroke:#000000;stroke-width:1;stroke-linecap:round;stroke-linejoin:round;stroke-miterlimit:10;stroke-dasharray:none;stroke-opacity:1"
       id="path298" /><path
       d="m 150.71492,218.48864 -2,-4 -2,4"
       style="fill:none;stroke:#000000;stroke-width:1;stroke-linecap:round;stroke-linejoin:round;stroke-miterlimit:10;stroke-dasharray:none;stroke-opacity:1"
       id="path300" /><path
       d="m 73.585846,157.94357 c 0,-4.3821 0,-8.39152 0,-12.02827"
       style="fill:none;stroke:#000000;stroke-width:1;stroke-linecap:round;stroke-linejoin:round;stroke-miterlimit:10;stroke-dasharray:none;stroke-opacity:1"
       id="path302" /><path
       d="m 75.585846,149.9153 -2,-4 -2,4"
       style="fill:none;stroke:#000000;stroke-width:1;stroke-linecap:round;stroke-linejoin:round;stroke-miterlimit:10;stroke-dasharray:none;stroke-opacity:1"
       id="path304" /><path
       d="m 120.39937,244.94739 h 153.78126 c 1.33333,0 2,0.59804 2,1.7941 v 12.2644 c 0,1.19607 -0.66667,1.79411 -2,1.79411 H 120.39937 c -1.33333,0 -2,-0.59804 -2,-1.79411 v -12.2644 c 0,-1.19606 0.66667,-1.7941 2,-1.7941 z"
       style="fill:#ffffff;fill-opacity:1;fill-rule:nonzero;stroke:#cccccc;stroke-width:0.947129;stroke-linecap:butt;stroke-linejoin:miter;stroke-miterlimit:10;stroke-dasharray:none;stroke-opacity:1"
       id="path306" /><path
       d="m 122.39937,252.70625 h 20"
       style="fill:none;stroke:#000000;stroke-width:3;stroke-linecap:square;stroke-linejoin:round;stroke-miterlimit:10;stroke-dasharray:none;stroke-opacity:1"
       id="path308" /><text
       transform="scale(1,-1)"
       style="font-variant:normal;font-weight:normal;font-size:10px;font-family:'DejaVu Sans';-inkscape-font-specification:DejaVuSans;writing-mode:lr-tb;fill:#000000;fill-opacity:1;fill-rule:nonzero;stroke:none"
       id="text312"
       x="150.39937"
       y="-249.20625"><tspan
         x="150.39937 155.60938 159.52937 165.65936 172.00937 174.78937"
         y="-249.20625"
         sodipodi:role="line"
         id="tspan310">stable</tspan></text><path
       d="m 200.94625,252.70625 h 20"
       style="fill:none;stroke:#000000;stroke-width:1.5;stroke-linecap:butt;stroke-linejoin:round;stroke-miterlimit:10;stroke-dasharray:5.55, 2.4;stroke-dashoffset:0;stroke-opacity:1"
       id="path314" /><text
       transform="scale(1,-1)"
       style="font-variant:normal;font-weight:normal;font-size:10px;font-family:'DejaVu Sans';-inkscape-font-specification:DejaVuSans;writing-mode:lr-tb;fill:#000000;fill-opacity:1;fill-rule:nonzero;stroke:none"
       id="text318"
       x="228.94624"
       y="-249.20625"><tspan
         x="228.94624 235.28625 241.62625 246.83624 250.75626 256.88626 263.23624 266.01624"
         y="-249.20625"
         sodipodi:role="line"
         id="tspan316">unstable</tspan></text><text
       xml:space="preserve"
       style="font-size:14px;line-height:1.25;font-family:sans-serif;-inkscape-font-specification:'sans-serif, Normal';fill:#0000ff;fill-opacity:1;stroke-width:0.75"
       x="265.23846"
       y="-72.121147"
       id="text1186"
       transform="scale(1,-1)"><tspan
         sodipodi:role="line"
         id="tspan1184"
         x="265.23846"
         y="-72.121147"
         style="font-style:normal;fill:#0000ff;fill-opacity:1;stroke-width:0.75">A</tspan></text><text
       xml:space="preserve"
       style="font-size:14px;line-height:1.25;font-family:sans-serif;-inkscape-font-specification:'sans-serif, Normal';fill:#0000ff;fill-opacity:1;stroke-width:0.75"
       x="266.45407"
       y="-222.98581"
       id="text1190"
       transform="scale(1,-1)"><tspan
         sodipodi:role="line"
         id="tspan1188"
         x="266.45407"
         y="-222.98581"
         style="font-style:normal;fill:#0000ff;fill-opacity:1;stroke-width:0.75">B</tspan></text><text
       xml:space="preserve"
       style="font-size:14px;line-height:1.25;font-family:sans-serif;-inkscape-font-specification:'sans-serif, Normal';stroke-width:0.75"
       x="146.7525"
       y="-180.10397"
       id="text1194"
       transform="scale(1,-1)"><tspan
         sodipodi:role="line"
         id="tspan1192"
         x="146.7525"
         y="-180.10397"
         style="font-style:normal;fill:#0000ff;stroke-width:0.75">C</tspan></text><text
       xml:space="preserve"
       style="font-size:14px;line-height:1.25;font-family:sans-serif;-inkscape-font-specification:'sans-serif, Normal';fill:#0000ff;stroke-width:0.75"
       x="67.567734"
       y="-72.121147"
       id="text1202"
       transform="scale(1,-1)"><tspan
         sodipodi:role="line"
         id="tspan1200"
         x="67.567734"
         y="-72.121147"
         style="font-style:normal;fill:#0000ff;stroke-width:0.75">E</tspan></text><text
       xml:space="preserve"
       style="font-size:14px;line-height:1.25;font-family:sans-serif;-inkscape-font-specification:'sans-serif, Normal';stroke-width:0.75"
       x="212.89696"
       y="-358.47577"
       id="text1206"
       transform="scale(1,-1)"><tspan
         sodipodi:role="line"
         id="tspan1204"
         x="212.89696"
         y="-358.47577"
         style="stroke-width:0.75" /></text><circle
       style="opacity:1;fill:#0000ff;fill-opacity:1;stroke:#0000ff;stroke-width:1.5"
       id="path1208"
       cx="259.89908"
       cy="-65.935379"
       r="4.6904421"
       transform="scale(1,-1)" /><circle
       style="fill:#0000ff;fill-opacity:1;stroke:#0000ff;stroke-width:1.5"
       id="path1208-3"
       cx="259.89908"
       cy="-237.21191"
       r="4.6904421"
       transform="scale(1,-1)" /><circle
       style="fill:#0000ff;fill-opacity:1;stroke:#0000ff;stroke-width:1.5"
       id="path1208-3-6"
       cx="150.98225"
       cy="-198.22401"
       r="4.6904421"
       transform="scale(1,-1)" /><circle
       style="fill:#0000ff;fill-opacity:1;stroke:#0000ff;stroke-width:1.5"
       id="path1208-3-7"
       cx="82.337807"
       cy="-65.683304"
       r="4.6904421"
       transform="scale(1,-1)" /><path
       style="fill:#0000ff;stroke:#0000ff;stroke-width:2.25;stroke-linecap:butt;stroke-linejoin:miter;stroke-miterlimit:4;stroke-dasharray:none;stroke-opacity:1;marker-end:url(#Arrow1Mend)"
       d="m 259.5453,75.604287 0,149.728263"
       id="path1259"
       sodipodi:nodetypes="cc" /><path
       style="fill:none;stroke:#0000ff;stroke-width:2.25;stroke-linecap:butt;stroke-linejoin:miter;stroke-miterlimit:4;stroke-dasharray:none;stroke-opacity:1;marker-end:url(#marker1386)"
       d="m 250.45509,241.68672 h -49.83038 c 0,0 -11.30142,-11.04507 -20.02199,-17.94461 -8.72057,-6.89955 -24.55327,-15.31102 -24.55327,-15.31102"
       id="path1585"
       sodipodi:nodetypes="cczc" /><path
       style="fill:none;fill-opacity:1;stroke:#0000ff;stroke-width:2.25;stroke-linecap:butt;stroke-linejoin:miter;stroke-miterlimit:4;stroke-dasharray:none;stroke-opacity:1;marker-end:url(#marker1462)"
       d="m 141.72198,199.22145 c 0,0 -55.62583,-20.45051 -55.879697,-34.4055 -0.253867,-13.95499 -2.380861,-88.778973 -2.380861,-88.778973"
       id="path1627"
       sodipodi:nodetypes="czc" /></g></svg>
